<?xml version="1.0" encoding="utf-8"?>
<!-- Generator: Adobe Illustrator 20.1.0, SVG Export Plug-In . SVG Version: 6.00 Build 0)  -->
<svg version="1.1" id="图层_1" xmlns="http://www.w3.org/2000/svg" xmlns:xlink="http://www.w3.org/1999/xlink" x="0px" y="0px"
	 viewBox="0 0 22 22" style="enable-background:new 0 0 22 22;" xml:space="preserve">
<g id="Page-1">
	<g id="List" transform="translate(-460.000000, -505.000000)">
		<g id="list" transform="translate(160.000000, 229.000000)">
			<g id="福特探险者">
				<g id="车型信息">
					<path id="ic_eyes" d="M311.9,284.1c-0.5,0.2-0.9,0.8-0.9,1.4c0,0.8,0.7,1.5,1.5,1.5c0.6,0,1.1-0.4,1.4-0.9
						c0.1,0.3,0.1,0.6,0.1,0.9c0,1.7-1.3,3-3,3s-3-1.3-3-3s1.3-3,3-3C311.3,284,311.6,284,311.9,284.1z M321.4,285.3
						c0.4,0.5,0.6,1.1,0.6,1.7c0,0.6-0.2,1.2-0.6,1.7c-1.7,2.4-5.9,6.3-10.4,6.3c-4.5,0-8.7-3.9-10.4-6.3c-0.4-0.5-0.6-1.1-0.6-1.7
						c0-0.6,0.2-1.2,0.6-1.7c1.7-2.4,5.9-6.3,10.4-6.3C315.5,279,319.7,282.9,321.4,285.3z M311,292c2.8,0,5-2.2,5-5s-2.2-5-5-5
						s-5,2.2-5,5S308.2,292,311,292z"/>
				</g>
			</g>
		</g>
	</g>
</g>
</svg>
