<?xml version="1.0" encoding="utf-8"?>
<!-- Generator: Adobe Illustrator 20.1.0, SVG Export Plug-In . SVG Version: 6.00 Build 0)  -->
<svg version="1.1" id="图层_1" xmlns="http://www.w3.org/2000/svg" xmlns:xlink="http://www.w3.org/1999/xlink" x="0px" y="0px"
	 viewBox="0 0 40 40" style="enable-background:new 0 0 40 40;" xml:space="preserve">
<g id="Page-1">
	<g id="付款" transform="translate(-30.000000, -662.000000)">
		<g id="提示" transform="translate(0.000000, 642.000000)">
			<path id="ic_fast" d="M50,60c-11,0-20-9-20-20s9-20,20-20s20,9,20,20S61,60,50,60z M53.2,27.3L42,40.6c-0.3,0.4-0.2,0.9,0.1,1.2
				c0.2,0.1,0.3,0.2,0.5,0.2h5.3l-1.5,9.8c-0.1,0.5,0.2,0.9,0.7,1c0.3,0,0.6-0.1,0.8-0.3l10.2-13.1l0,0c0.3-0.4,0.2-0.9-0.1-1.2
				c-0.1-0.1-0.3-0.2-0.5-0.2H53l1.6-10l0,0c0.1-0.5-0.2-0.9-0.7-1C53.6,27,53.4,27.1,53.2,27.3L53.2,27.3z"/>
		</g>
	</g>
</g>
</svg>
