<?xml version="1.0" encoding="utf-8"?>
<!-- Generator: Adobe Illustrator 20.1.0, SVG Export Plug-In . SVG Version: 6.00 Build 0)  -->
<svg version="1.1" id="图层_1" xmlns="http://www.w3.org/2000/svg" xmlns:xlink="http://www.w3.org/1999/xlink" x="0px" y="0px"
	 viewBox="0 0 18 18" style="enable-background:new 0 0 18 18;" xml:space="preserve">
<g id="enterprise1" transform="translate(0.000000, 400.000000)">
	<g id="标签_免费" transform="translate(138.000000, 160.000000)">
		<path id="ic_free" d="M-128.9-555L-128.9-555h0.4v3h7.5v-3H-128.9z M-129.1-555h-7.9v3h7.5v-3H-129.1L-129.1-555z M-127.9-556h6.9
			c0.6,0,1,0.4,1,1v3c0,0.6-0.4,1-1,1h-1v7c0,1.1-0.9,2-2,2h-10c-1.1,0-2-0.9-2-2v-7h-1c-0.6,0-1-0.4-1-1v-3c0-0.6,0.4-1,1-1h6.9
			l-3.3-3.3l0.7-0.7l3.6,3.6l3.6-3.6l0.7,0.7L-127.9-556z M-129.5-551h-5.5v7c0,0.6,0.4,1,1,1h10c0.6,0,1-0.4,1-1v-7h-5.5v8h-1V-551
			z"/>
	</g>
</g>
</svg>
